<svg width="124" height="72" viewBox="0 0 124 72" fill="none" xmlns="http://www.w3.org/2000/svg">
<g filter="url(#filter0_d_1_14)">
<rect x="12" y="6" width="100" height="48" rx="24" fill="#F9C06A"/>
</g>
<path d="M42.71 24.92C43.2047 24.92 43.5827 24.976 43.844 25.088C44.1053 25.2 44.334 25.3213 44.53 25.452C44.642 25.5173 44.7307 25.5687 44.796 25.606C44.8707 25.634 44.9407 25.648 45.006 25.648C45.0993 25.648 45.1647 25.5967 45.202 25.494C45.2487 25.3913 45.286 25.2373 45.314 25.032H45.636C45.6267 25.2 45.6127 25.4007 45.594 25.634C45.5847 25.858 45.5753 26.1567 45.566 26.53C45.566 26.9033 45.566 27.3933 45.566 28H45.244C45.216 27.5427 45.1133 27.0993 44.936 26.67C44.768 26.2407 44.516 25.8907 44.18 25.62C43.8533 25.3493 43.4333 25.214 42.92 25.214C42.444 25.214 42.0473 25.3587 41.73 25.648C41.422 25.928 41.268 26.3013 41.268 26.768C41.268 27.1787 41.3707 27.524 41.576 27.804C41.7813 28.0747 42.0613 28.3313 42.416 28.574C42.78 28.8073 43.1907 29.0687 43.648 29.358C44.1147 29.6567 44.5347 29.9553 44.908 30.254C45.2813 30.5433 45.5753 30.8653 45.79 31.22C46.0047 31.5747 46.112 32.004 46.112 32.508C46.112 33.1147 45.9673 33.6187 45.678 34.02C45.398 34.412 45.02 34.706 44.544 34.902C44.068 35.098 43.5453 35.196 42.976 35.196C42.4533 35.196 42.038 35.14 41.73 35.028C41.422 34.916 41.1607 34.7993 40.946 34.678C40.7407 34.5473 40.582 34.482 40.47 34.482C40.3767 34.482 40.3067 34.5333 40.26 34.636C40.2227 34.7387 40.19 34.8927 40.162 35.098H39.84C39.8587 34.8927 39.868 34.6547 39.868 34.384C39.8773 34.104 39.882 33.74 39.882 33.292C39.8913 32.844 39.896 32.2793 39.896 31.598H40.218C40.2553 32.1767 40.358 32.718 40.526 33.222C40.7033 33.726 40.9693 34.132 41.324 34.44C41.688 34.7387 42.1687 34.888 42.766 34.888C43.0833 34.888 43.3773 34.8273 43.648 34.706C43.9187 34.5847 44.138 34.3933 44.306 34.132C44.474 33.8707 44.558 33.5347 44.558 33.124C44.558 32.7413 44.4647 32.4053 44.278 32.116C44.1007 31.8267 43.8487 31.5607 43.522 31.318C43.2047 31.066 42.8313 30.8093 42.402 30.548C41.9633 30.268 41.5527 29.988 41.17 29.708C40.7873 29.428 40.4793 29.1013 40.246 28.728C40.022 28.3547 39.91 27.9113 39.91 27.398C39.91 26.8287 40.0407 26.362 40.302 25.998C40.5727 25.634 40.918 25.3633 41.338 25.186C41.7673 25.0087 42.2247 24.92 42.71 24.92ZM48.8236 24.248C49.113 24.248 49.3556 24.3413 49.5516 24.528C49.7476 24.7053 49.8456 24.9293 49.8456 25.2C49.8456 25.4707 49.7476 25.6993 49.5516 25.886C49.3556 26.0633 49.113 26.152 48.8236 26.152C48.5343 26.152 48.2916 26.0633 48.0956 25.886C47.8996 25.6993 47.8016 25.4707 47.8016 25.2C47.8016 24.9293 47.8996 24.7053 48.0956 24.528C48.2916 24.3413 48.5343 24.248 48.8236 24.248ZM49.6636 27.622V33.698C49.6636 34.09 49.7383 34.356 49.8876 34.496C50.0463 34.636 50.3076 34.706 50.6716 34.706V35C50.513 34.9907 50.2656 34.9813 49.9296 34.972C49.603 34.9533 49.267 34.944 48.9216 34.944C48.595 34.944 48.259 34.9533 47.9136 34.972C47.5683 34.9813 47.3116 34.9907 47.1436 35V34.706C47.5076 34.706 47.7643 34.636 47.9136 34.496C48.0723 34.356 48.1516 34.09 48.1516 33.698V29.302C48.1516 28.882 48.0816 28.574 47.9416 28.378C47.8016 28.1727 47.5356 28.07 47.1436 28.07V27.776C47.4423 27.804 47.7316 27.818 48.0116 27.818C48.329 27.818 48.623 27.804 48.8936 27.776C49.1736 27.7387 49.4303 27.6873 49.6636 27.622ZM56.2129 27.58C56.5862 27.58 56.8896 27.6313 57.1229 27.734C57.3656 27.8273 57.5662 27.958 57.7249 28.126C57.8929 28.3033 58.0096 28.532 58.0749 28.812C58.1496 29.092 58.1869 29.47 58.1869 29.946V33.698C58.1869 34.09 58.2616 34.356 58.4109 34.496C58.5696 34.636 58.8309 34.706 59.1949 34.706V35C59.0362 34.9907 58.7889 34.9813 58.4529 34.972C58.1169 34.9533 57.7856 34.944 57.4589 34.944C57.1416 34.944 56.8242 34.9533 56.5069 34.972C56.1989 34.9813 55.9656 34.9907 55.8069 35V34.706C56.1242 34.706 56.3482 34.636 56.4789 34.496C56.6096 34.356 56.6749 34.09 56.6749 33.698V29.554C56.6749 29.2833 56.6516 29.0407 56.6049 28.826C56.5582 28.602 56.4602 28.4247 56.3109 28.294C56.1616 28.154 55.9376 28.084 55.6389 28.084C55.2936 28.084 54.9856 28.182 54.7149 28.378C54.4536 28.574 54.2436 28.8447 54.0849 29.19C53.9356 29.526 53.8609 29.904 53.8609 30.324V33.698C53.8609 34.09 53.9262 34.356 54.0569 34.496C54.1969 34.636 54.4209 34.706 54.7289 34.706V35C54.5796 34.9907 54.3509 34.9813 54.0429 34.972C53.7442 34.9533 53.4316 34.944 53.1049 34.944C52.7876 34.944 52.4562 34.9533 52.1109 34.972C51.7656 34.9813 51.5089 34.9907 51.3409 35V34.706C51.7049 34.706 51.9616 34.636 52.1109 34.496C52.2696 34.356 52.3489 34.09 52.3489 33.698V29.302C52.3489 28.882 52.2789 28.574 52.1389 28.378C51.9989 28.1727 51.7329 28.07 51.3409 28.07V27.776C51.6396 27.804 51.9289 27.818 52.2089 27.818C52.5262 27.818 52.8202 27.804 53.0909 27.776C53.3709 27.7387 53.6276 27.6873 53.8609 27.622V29.148C54.1036 28.5693 54.4349 28.1633 54.8549 27.93C55.2842 27.6967 55.7369 27.58 56.2129 27.58ZM62.2854 37.632C61.7627 37.632 61.2774 37.5807 60.8294 37.478C60.3907 37.3753 60.0361 37.2167 59.7654 37.002C59.5041 36.7967 59.3734 36.5307 59.3734 36.204C59.3734 35.896 59.5041 35.6253 59.7654 35.392C60.0267 35.1587 60.3954 34.9813 60.8714 34.86L60.9694 35.084C60.7734 35.168 60.6194 35.3033 60.5074 35.49C60.4047 35.6767 60.3534 35.882 60.3534 36.106C60.3534 36.5167 60.5447 36.834 60.9274 37.058C61.3101 37.282 61.8141 37.394 62.4394 37.394C62.8594 37.394 63.2561 37.338 63.6294 37.226C64.0121 37.1233 64.3201 36.9507 64.5534 36.708C64.7961 36.4653 64.9174 36.1527 64.9174 35.77C64.9174 35.4713 64.8101 35.2193 64.5954 35.014C64.3807 34.818 63.9561 34.72 63.3214 34.72H62.3414C62.0147 34.72 61.7114 34.692 61.4314 34.636C61.1514 34.58 60.9227 34.4727 60.7454 34.314C60.5774 34.146 60.4934 33.9127 60.4934 33.614C60.4934 33.278 60.6334 32.9607 60.9134 32.662C61.1934 32.3633 61.6647 32.0693 62.3274 31.78L62.4954 31.906C62.2247 32.0553 61.9821 32.2093 61.7674 32.368C61.5621 32.5173 61.4594 32.704 61.4594 32.928C61.4594 33.2267 61.6741 33.376 62.1034 33.376H63.7694C64.2081 33.376 64.6047 33.4367 64.9594 33.558C65.3141 33.67 65.5987 33.852 65.8134 34.104C66.0281 34.356 66.1354 34.6873 66.1354 35.098C66.1354 35.5367 65.9907 35.9473 65.7014 36.33C65.4214 36.722 64.9967 37.0347 64.4274 37.268C63.8581 37.5107 63.1441 37.632 62.2854 37.632ZM62.3694 32.018C61.8934 32.018 61.4594 31.9433 61.0674 31.794C60.6754 31.6353 60.3674 31.3927 60.1434 31.066C59.9194 30.7393 59.8074 30.3193 59.8074 29.806C59.8074 29.2927 59.9194 28.8727 60.1434 28.546C60.3674 28.21 60.6754 27.9673 61.0674 27.818C61.4594 27.6593 61.8934 27.58 62.3694 27.58C62.8641 27.58 63.3027 27.6593 63.6854 27.818C64.0681 27.9673 64.3714 28.21 64.5954 28.546C64.8194 28.8727 64.9314 29.2927 64.9314 29.806C64.9314 30.3193 64.8194 30.7393 64.5954 31.066C64.3714 31.3927 64.0681 31.6353 63.6854 31.794C63.3027 31.9433 62.8641 32.018 62.3694 32.018ZM62.3694 31.766C62.6961 31.766 62.9481 31.626 63.1254 31.346C63.3027 31.066 63.3914 30.5527 63.3914 29.806C63.3914 29.0593 63.3027 28.546 63.1254 28.266C62.9481 27.9767 62.6961 27.832 62.3694 27.832C62.0614 27.832 61.8141 27.9767 61.6274 28.266C61.4407 28.546 61.3474 29.0593 61.3474 29.806C61.3474 30.5527 61.4407 31.066 61.6274 31.346C61.8141 31.626 62.0614 31.766 62.3694 31.766ZM64.4414 28.756L64.1894 28.658C64.3201 28.3313 64.5441 28.0467 64.8614 27.804C65.1787 27.5613 65.5101 27.44 65.8554 27.44C66.1167 27.44 66.3221 27.5147 66.4714 27.664C66.6301 27.804 66.7094 28.0047 66.7094 28.266C66.7094 28.5553 66.6301 28.7607 66.4714 28.882C66.3221 29.0033 66.1634 29.064 65.9954 29.064C65.8461 29.064 65.7061 29.0127 65.5754 28.91C65.4541 28.8073 65.3841 28.6487 65.3654 28.434C65.3467 28.21 65.4167 27.9253 65.5754 27.58L65.7294 27.636C65.3561 27.7853 65.0807 27.944 64.9034 28.112C64.7354 28.2707 64.5814 28.4853 64.4414 28.756ZM75.9392 25.088V25.368C75.6312 25.3867 75.3979 25.4427 75.2392 25.536C75.0806 25.6293 74.9732 25.7833 74.9172 25.998C74.8612 26.2033 74.8332 26.4973 74.8332 26.88V30.926C74.8332 31.5607 74.7912 32.1253 74.7072 32.62C74.6232 33.1147 74.4739 33.5393 74.2592 33.894C74.0259 34.286 73.6806 34.6033 73.2232 34.846C72.7752 35.0793 72.2386 35.196 71.6132 35.196C71.1652 35.196 70.7312 35.1447 70.3112 35.042C69.8912 34.9393 69.5226 34.7433 69.2052 34.454C68.9252 34.202 68.7059 33.9267 68.5472 33.628C68.3886 33.3293 68.2812 32.97 68.2252 32.55C68.1692 32.1207 68.1412 31.5933 68.1412 30.968V26.572C68.1412 26.2267 68.1132 25.9747 68.0572 25.816C68.0106 25.648 67.9079 25.536 67.7492 25.48C67.5906 25.4147 67.3526 25.3773 67.0352 25.368V25.088C67.2499 25.0973 67.5252 25.1067 67.8612 25.116C68.2066 25.1253 68.5752 25.13 68.9672 25.13C69.3219 25.13 69.6719 25.1253 70.0172 25.116C70.3719 25.1067 70.6612 25.0973 70.8852 25.088V25.368C70.5679 25.3773 70.3252 25.4147 70.1572 25.48C69.9986 25.536 69.8912 25.648 69.8352 25.816C69.7792 25.9747 69.7512 26.2267 69.7512 26.572V31.416C69.7512 31.892 69.7746 32.3307 69.8212 32.732C69.8772 33.1333 69.9752 33.4833 70.1152 33.782C70.2646 34.0713 70.4792 34.3 70.7592 34.468C71.0486 34.6267 71.4219 34.706 71.8792 34.706C72.5699 34.706 73.1019 34.552 73.4752 34.244C73.8579 33.9267 74.1239 33.4973 74.2732 32.956C74.4319 32.4053 74.5112 31.78 74.5112 31.08V26.936C74.5112 26.5347 74.4739 26.2267 74.3992 26.012C74.3246 25.7973 74.1939 25.6433 74.0072 25.55C73.8206 25.4473 73.5546 25.3867 73.2092 25.368V25.088C73.3866 25.0973 73.6152 25.1067 73.8952 25.116C74.1752 25.1253 74.4319 25.13 74.6652 25.13C74.9079 25.13 75.1412 25.1253 75.3652 25.116C75.5986 25.1067 75.7899 25.0973 75.9392 25.088ZM78.8648 27.622V36.204C78.8648 36.6147 78.9814 36.89 79.2148 37.03C79.4481 37.17 79.7701 37.24 80.1808 37.24V37.534C79.9661 37.5247 79.6674 37.5107 79.2848 37.492C78.9021 37.4827 78.4914 37.478 78.0528 37.478C77.7448 37.478 77.4414 37.4827 77.1428 37.492C76.8441 37.5107 76.6154 37.5247 76.4568 37.534V37.24C76.7834 37.24 77.0121 37.1747 77.1428 37.044C77.2828 36.9227 77.3528 36.6893 77.3528 36.344V29.302C77.3528 28.882 77.2828 28.574 77.1428 28.378C77.0028 28.1727 76.7368 28.07 76.3448 28.07V27.776C76.6434 27.804 76.9328 27.818 77.2128 27.818C77.5208 27.818 77.8148 27.804 78.0948 27.776C78.3748 27.7387 78.6314 27.6873 78.8648 27.622ZM81.0908 27.58C81.5761 27.58 82.0101 27.7153 82.3928 27.986C82.7848 28.2473 83.0928 28.6347 83.3168 29.148C83.5408 29.6613 83.6528 30.3007 83.6528 31.066C83.6528 31.626 83.5874 32.158 83.4568 32.662C83.3261 33.1567 83.1254 33.5953 82.8548 33.978C82.5934 34.3513 82.2621 34.65 81.8608 34.874C81.4594 35.0887 80.9834 35.196 80.4328 35.196C80.0221 35.196 79.6581 35.1073 79.3408 34.93C79.0328 34.7527 78.8134 34.5287 78.6828 34.258L78.8228 34.062C78.9441 34.2953 79.1121 34.4867 79.3268 34.636C79.5508 34.7853 79.8261 34.86 80.1528 34.86C80.6381 34.86 81.0161 34.706 81.2868 34.398C81.5668 34.0807 81.7628 33.656 81.8748 33.124C81.9868 32.5827 82.0428 31.9713 82.0428 31.29C82.0428 30.5247 81.9868 29.9087 81.8748 29.442C81.7628 28.966 81.5948 28.6207 81.3708 28.406C81.1468 28.182 80.8761 28.07 80.5588 28.07C80.1388 28.07 79.7561 28.238 79.4108 28.574C79.0748 28.91 78.8694 29.414 78.7948 30.086L78.6548 29.792C78.7761 29.092 79.0561 28.5507 79.4948 28.168C79.9428 27.776 80.4748 27.58 81.0908 27.58Z" fill="#1E1E1E"/>
<defs>
<filter id="filter0_d_1_14" x="0" y="0" width="124" height="72" filterUnits="userSpaceOnUse" color-interpolation-filters="sRGB">
<feFlood flood-opacity="0" result="BackgroundImageFix"/>
<feColorMatrix in="SourceAlpha" type="matrix" values="0 0 0 0 0 0 0 0 0 0 0 0 0 0 0 0 0 0 127 0" result="hardAlpha"/>
<feOffset dy="6"/>
<feGaussianBlur stdDeviation="6"/>
<feComposite in2="hardAlpha" operator="out"/>
<feColorMatrix type="matrix" values="0 0 0 0 0.976471 0 0 0 0 0.752941 0 0 0 0 0.415686 0 0 0 0.22 0"/>
<feBlend mode="normal" in2="BackgroundImageFix" result="effect1_dropShadow_1_14"/>
<feBlend mode="normal" in="SourceGraphic" in2="effect1_dropShadow_1_14" result="shape"/>
</filter>
</defs>
</svg>
